<svg width="30" height="30" viewBox="0 0 30 30" fill="none" xmlns="http://www.w3.org/2000/svg">
<g id="vuesax/outline/textalign-justifycenter">
<g id="textalign-justifycenter">
<path id="Vector" d="M26.25 6.5625H3.75C3.2375 6.5625 2.8125 6.1375 2.8125 5.625C2.8125 5.1125 3.2375 4.6875 3.75 4.6875H26.25C26.7625 4.6875 27.1875 5.1125 27.1875 5.625C27.1875 6.1375 26.7625 6.5625 26.25 6.5625Z" fill="black"/>
<path id="Vector_2" d="M26.25 12.8125H3.75C3.2375 12.8125 2.8125 12.3875 2.8125 11.875C2.8125 11.3625 3.2375 10.9375 3.75 10.9375H26.25C26.7625 10.9375 27.1875 11.3625 27.1875 11.875C27.1875 12.3875 26.7625 12.8125 26.25 12.8125Z" fill="black"/>
<path id="Vector_3" d="M26.25 19.0625H3.75C3.2375 19.0625 2.8125 18.6375 2.8125 18.125C2.8125 17.6125 3.2375 17.1875 3.75 17.1875H26.25C26.7625 17.1875 27.1875 17.6125 27.1875 18.125C27.1875 18.6375 26.7625 19.0625 26.25 19.0625Z" fill="black"/>
<path id="Vector_4" d="M26.25 25.3125H3.75C3.2375 25.3125 2.8125 24.8875 2.8125 24.375C2.8125 23.8625 3.2375 23.4375 3.75 23.4375H26.25C26.7625 23.4375 27.1875 23.8625 27.1875 24.375C27.1875 24.8875 26.7625 25.3125 26.25 25.3125Z" fill="black"/>
</g>
</g>
</svg>
